<svg width="150" height="150" viewBox="0 0 150 150" fill="none" xmlns="http://www.w3.org/2000/svg">
<path d="M94.8525 0C125.309 0 150 24.6906 150 55.1475V94.8525C150 125.309 125.309 150 94.8525 150H55.1475C24.6906 150 0 125.309 0 94.8525V55.1475C0 24.6906 24.6906 0 55.1475 0H94.8525ZM75.1533 26.4707C48.2661 26.4711 26.4697 48.268 26.4697 75.1553C26.4701 102.042 48.2663 123.838 75.1533 123.839C96.7075 123.839 114.987 109.83 121.392 90.4219C121.588 89.8252 121.139 89.218 120.511 89.2178H100.038C99.7105 89.2178 99.4078 89.3894 99.2324 89.666C94.2476 97.5393 85.3281 102.786 75.1543 102.786C59.531 102.786 46.8655 90.4153 46.8652 75.1553C46.8652 59.895 59.5308 47.5238 75.1543 47.5234C85.3283 47.5235 94.2477 52.7698 99.2324 60.6436C99.4077 60.9204 99.7104 61.0928 100.038 61.0928H120.512C121.14 61.0925 121.589 60.4853 121.393 59.8887C114.988 40.4796 96.7079 26.4708 75.1533 26.4707ZM74.4229 61.0928C74.0566 62.9725 73.2147 64.8771 71.8965 66.8057C70.6026 68.6855 68.9911 70.2969 67.0625 71.6396C65.1582 72.958 63.1679 73.8613 61.0928 74.3496V75.8877C63.1923 76.3271 65.2921 77.3399 67.3916 78.9268C69.5156 80.5137 71.1514 82.2354 72.2988 84.0908C73.4462 85.9218 74.1543 87.6309 74.4229 89.2178H75.9609C76.2295 87.6065 76.9375 85.8847 78.085 84.0537C78.8661 82.8087 79.8674 81.6249 81.0879 80.502C82.3085 79.3546 83.627 78.3652 85.043 77.5352C86.4833 76.7052 87.8751 76.1563 89.2178 75.8877V74.3496C87.216 73.9102 85.2508 73.0067 83.3223 71.6396C82.0283 70.7119 80.8564 69.6738 79.8066 68.5264C78.7813 67.3545 77.9385 66.1338 77.2793 64.8643C76.6202 63.5705 76.1807 62.3133 75.9609 61.0928H74.4229Z" fill="#8345DD"/>
</svg>
