<svg width="98" height="26" viewBox="0 0 98 26" fill="currentColor" xmlns="http://www.w3.org/2000/svg">
<path fill-rule="evenodd" clip-rule="evenodd" d="M41.3137 0C39.0185 0 37.524 0.766316 36.1895 3.33895L30.1046 15.1074V4.65263C30.1046 1.53263 28.6634 0 25.9946 0C23.3257 0 22.2048 0.930526 20.8704 3.55789L15.1057 15.1074V4.7621C15.1057 1.42316 13.7712 0 10.5153 0H3.89651C1.3878 0 0 1.20421 0 3.39368C0 5.58316 1.33442 6.89684 3.78976 6.89684H6.51198V20.0884C6.51198 23.8105 8.96732 26 12.4902 26C16.0131 26 17.6144 24.5768 19.3758 21.2379L23.219 13.8484V20.0884C23.219 23.7558 25.5675 26 29.1438 26C32.72 26 34.0545 24.7411 36.0828 21.2379L44.9433 5.91158C46.8649 2.57263 45.5305 0 41.2603 0C41.2603 0 41.2603 0 41.3137 0Z" fill="inherit"/>
<path fill-rule="evenodd" clip-rule="evenodd" d="M57.9673 0C50.708 0 45.2102 5.52842 45.2102 13.0274C45.2102 20.5263 50.7614 26 57.9673 26C65.1732 26 70.671 20.4716 70.7244 13.0274C70.7244 5.52842 65.1732 0 57.9673 0ZM57.9673 18.0084C55.2451 18.0084 53.3769 15.9284 53.3769 13.0274C53.3769 10.1263 55.2451 7.99158 57.9673 7.99158C60.6895 7.99158 62.5577 10.1263 62.5577 13.0274C62.5577 15.9284 60.7429 18.0084 57.9673 18.0084Z" fill="inherit"/>
<path fill-rule="evenodd" clip-rule="evenodd" d="M85.2429 0C78.037 0 72.4858 5.52842 72.4858 13.0274C72.4858 20.5263 78.037 26 85.2429 26C92.4488 26 98 20.4716 98 13.0274C98 5.58316 92.4488 0 85.2429 0ZM85.2429 18.0084C82.4673 18.0084 80.7059 15.9284 80.7059 13.0274C80.7059 10.1263 82.5207 7.99158 85.2429 7.99158C87.9651 7.99158 89.8333 10.1263 89.8333 13.0274C89.8333 15.9284 88.0185 18.0084 85.2429 18.0084Z" fill="inherit"/>
</svg>
