<svg width="64" height="64" viewBox="0 0 64 64" fill="inherit" xmlns="http://www.w3.org/2000/svg">
<path d="M54.3468 9.22536L42.6668 5.33203C42.6668 8.16101 41.543 10.8741 39.5426 12.8745C37.5422 14.8749 34.8291 15.9987 32.0001 15.9987C29.1711 15.9987 26.458 14.8749 24.4576 12.8745C22.4572 10.8741 21.3334 8.16101 21.3334 5.33203L9.65344 9.22536C8.44646 9.62748 7.42298 10.4478 6.76772 11.5383C6.11246 12.6288 5.86858 13.9175 6.08011 15.172L7.62677 24.4254C7.72831 25.0518 8.04992 25.6215 8.53382 26.0321C9.01771 26.4426 9.63217 26.6672 10.2668 26.6654H16.0001V53.332C16.0001 56.2654 18.4001 58.6654 21.3334 58.6654H42.6668C44.0813 58.6654 45.4378 58.1035 46.438 57.1033C47.4382 56.1031 48.0001 54.7465 48.0001 53.332V26.6654H53.7334C54.368 26.6672 54.9825 26.4426 55.4664 26.0321C55.9503 25.6215 56.2719 25.0518 56.3734 24.4254L57.9201 15.172C58.1316 13.9175 57.8878 12.6288 57.2325 11.5383C56.5772 10.4478 55.5538 9.62748 54.3468 9.22536Z" stroke="currentColor" stroke-width="4" stroke-linecap="round" stroke-linejoin="round"/>
</svg>
